<svg xmlns="http://www.w3.org/2000/svg" width="384" height="79" viewBox="0 0 384 79">
    <g fill="none" fill-rule="evenodd">
        <g>
            <g>
                <g transform="translate(-52 -58) translate(52 58) translate(107.421)">
                    <path fill="#FFF" d="M169.177 0v53.062h105.087L274.108 79h-17.285v-8.778l-104.94.157V0h17.294zm-55.033 6.583c15.602 0 27.6 12.518 27.852 28.056l.004.472v35.111H0V53.138h32.268v-6.835c0-9.436-5.708-14.045-13.61-14.045-3.512 0-7.683.878-11.634 2.634L5.268 21.067c5.049-2.195 10.976-3.511 15.805-3.511 20.194 0 28.515 12.07 28.515 26.333l.008 9.249h11.73c-1.183-3.064-1.84-6.865-1.84-10.346 0-15.15 12.285-27.43 27.439-27.43 2.065 0 4.077.227 6.012.66.333-.37.676-.73 1.029-1.083 5.311-5.31 12.514-8.356 20.178-8.356zm0 17.556c-2.064 0-4.028.566-5.723 1.605 3.683 4.634 5.898 10.487 5.941 16.855l.001.193v9.875h10.756V35.11c0-6-4.816-10.874-10.794-10.97l-.181-.002zm-27.22 8.778c-5.455 0-9.877 4.42-9.877 9.875 0 5.399 4.334 9.786 9.714 9.873l.164.002h9.878v-9.875c0-5.346-4.249-9.699-9.554-9.87l-.16-.004-.164-.001z"/>
                    <ellipse cx="265.603" cy="26.333" fill="#09F" rx="10.975" ry="10.972"/>
                    <ellipse cx="230.482" cy="26.333" fill="#0C9" rx="10.975" ry="10.972"/>
                    <ellipse cx="195.361" cy="26.333" fill="#00D358" rx="10.975" ry="10.972"/>
                </g>
                <path fill="#FFF" d="M95.387 13.578c1.191 0 2.156.966 2.156 2.156v52.47c0 1.19-.965 2.155-2.156 2.155H2.157C.964 70.36 0 69.394 0 68.203V15.734c0-1.19.965-2.156 2.156-2.156h93.231zm-67.581 16.53H12.347v25.439h4.892V44.575h8.812v-4.22h-8.812v-6.028h10.567v-4.22zm10.193-.483c-.846 0-2.078.067-3.696.2-1.523.127-2.484.23-2.882.308l-.068.014v25.4h4.891v-9.485c.1.08.392.154.878.221.485.067.902.1 1.25.1.474 0 .847-.026 1.12-.08.623 1.286 1.432 3.149 2.428 5.587.677 1.657 1.168 2.833 1.472 3.525l.059.132h4.929c-1.992-4.42-3.523-7.97-4.593-10.65.871-.83 1.543-1.635 2.016-2.412.822-1.393 1.232-3.027 1.232-4.903 0-2.197-.56-3.965-1.68-5.305-1.518-1.768-3.97-2.652-7.356-2.652zm27.818.482H50.36v25.44h15.943v-4.22H55.25v-6.792h8.812v-4.22H55.25v-5.988h10.567v-4.22zm18.894 0H69.252v25.44h15.944v-4.22H74.144v-6.792h8.812v-4.22h-8.812v-5.988H84.71v-4.22zm-46.152 3.738c2.216 0 3.324 1.246 3.324 3.737 0 1.474-.274 2.6-.822 3.376-.547.804-1.344 1.206-2.39 1.206-.771 0-1.518-.107-2.24-.322-.05-.017-.094-.03-.133-.035l-.054-.005v-7.676c.274-.187 1.046-.281 2.315-.281z" transform="translate(-52 -58) translate(52 58)"/>
            </g>
        </g>
    </g>
</svg>
